<mxfile host="app.diagrams.net" modified="2021-09-08T21:05:04.272Z" agent="5.0 (Windows NT 10.0; Win64; x64) AppleWebKit/537.36 (KHTML, like Gecko) Chrome/93.0.4577.63 Safari/537.36" etag="vd4BysIwto9jh4yG4Eg_" version="15.1.1" type="github">
  <diagram id="hF1DCo-za6BDpXijDqXe" name="Page-1">
    <mxGraphModel dx="1038" dy="547" grid="1" gridSize="10" guides="1" tooltips="1" connect="1" arrows="1" fold="1" page="1" pageScale="1" pageWidth="850" pageHeight="1100" math="0" shadow="0">
      <root>
        <mxCell id="0" />
        <mxCell id="1" parent="0" />
        <mxCell id="qYQen40BbtpS6DdnJ-LU-4" value="&lt;b&gt;Goal:&lt;/b&gt;&lt;br&gt;&lt;div&gt;Informing people from the latest discounts of some brands which he/she is interested.&lt;br&gt;&lt;/div&gt;" style="rounded=0;whiteSpace=wrap;html=1;align=left;" parent="1" vertex="1">
          <mxGeometry x="330" y="209" width="140" height="120" as="geometry" />
        </mxCell>
        <mxCell id="qYQen40BbtpS6DdnJ-LU-7" value="&lt;b&gt;Mean:&lt;/b&gt;&lt;br&gt;&lt;div&gt;To show ads that are relevant to the user&lt;/div&gt;&lt;div&gt;&lt;br&gt;&lt;/div&gt;" style="whiteSpace=wrap;html=1;aspect=fixed;align=left;" parent="1" vertex="1">
          <mxGeometry x="345" y="430" width="110" height="110" as="geometry" />
        </mxCell>
        <mxCell id="IBMI4tn_m0O9jDeK7wMh-1" value="&lt;b&gt;Goal:&lt;/b&gt;&lt;br&gt;&lt;div&gt;To make people use Google Assistant several times a day&lt;br&gt;&lt;/div&gt;" style="whiteSpace=wrap;html=1;aspect=fixed;align=left;" parent="1" vertex="1">
          <mxGeometry x="530" y="10" width="120" height="120" as="geometry" />
        </mxCell>
        <mxCell id="IBMI4tn_m0O9jDeK7wMh-2" value="&lt;b&gt;Goal:&lt;/b&gt;&lt;br&gt;To make Google Assistant available on many devices" style="whiteSpace=wrap;html=1;aspect=fixed;align=left;" parent="1" vertex="1">
          <mxGeometry x="850" y="10" width="120" height="120" as="geometry" />
        </mxCell>
        <mxCell id="IBMI4tn_m0O9jDeK7wMh-5" value="&lt;b&gt;Goal:&lt;/b&gt;&lt;br&gt;&lt;div&gt;To make Google Assistant enjoyable to use&lt;br&gt;&lt;/div&gt;" style="whiteSpace=wrap;html=1;aspect=fixed;align=left;" parent="1" vertex="1">
          <mxGeometry x="100" y="10" width="120" height="120" as="geometry" />
        </mxCell>
        <mxCell id="IBMI4tn_m0O9jDeK7wMh-15" value="&lt;b&gt;Goal:&lt;/b&gt;&lt;br&gt;&lt;div&gt;To make Google Assistant more practical in real world&lt;br&gt;&lt;/div&gt;" style="whiteSpace=wrap;html=1;aspect=fixed;align=left;" parent="1" vertex="1">
          <mxGeometry x="330" y="10" width="120" height="120" as="geometry" />
        </mxCell>
        <mxCell id="KIbq9x-NmEHwbfyPO5Z1-1" value="&lt;div&gt;&lt;b&gt;Goal&lt;/b&gt;:&lt;/div&gt;The services in googel home shall be improved" style="rounded=0;whiteSpace=wrap;html=1;align=left;" vertex="1" parent="1">
          <mxGeometry x="80" y="209" width="120" height="100" as="geometry" />
        </mxCell>
        <mxCell id="KIbq9x-NmEHwbfyPO5Z1-4" value="&lt;b&gt;Mean:&lt;/b&gt;&lt;br&gt;To have a good microphone in Google Home" style="whiteSpace=wrap;html=1;aspect=fixed;align=left;" vertex="1" parent="1">
          <mxGeometry x="80" y="410" width="110" height="110" as="geometry" />
        </mxCell>
        <mxCell id="KIbq9x-NmEHwbfyPO5Z1-8" value="&lt;b&gt;Mean:&lt;/b&gt;&lt;br&gt;To cooperate with vendors that offer apps and services" style="whiteSpace=wrap;html=1;aspect=fixed;align=left;" vertex="1" parent="1">
          <mxGeometry x="700" y="204" width="110" height="110" as="geometry" />
        </mxCell>
        <mxCell id="KIbq9x-NmEHwbfyPO5Z1-16" value="&lt;b&gt;Mean:&lt;/b&gt;&lt;br&gt;To give answers to queries that are relevant to the user" style="whiteSpace=wrap;html=1;aspect=fixed;align=left;" vertex="1" parent="1">
          <mxGeometry x="550" y="200" width="110" height="110" as="geometry" />
        </mxCell>
        <mxCell id="KIbq9x-NmEHwbfyPO5Z1-19" value="&lt;b&gt;Mean:&lt;/b&gt;&lt;br&gt;To collect a lot of data about users of Google Assistant" style="whiteSpace=wrap;html=1;aspect=fixed;align=left;" vertex="1" parent="1">
          <mxGeometry x="860" y="200" width="110" height="110" as="geometry" />
        </mxCell>
        <mxCell id="KIbq9x-NmEHwbfyPO5Z1-22" value="&lt;b&gt;Goal:&lt;br&gt;&lt;/b&gt;&lt;span&gt;To ensure that Google Assistant can interact with many third party apps and services&lt;/span&gt;&lt;b&gt;&lt;br&gt;&lt;/b&gt;" style="whiteSpace=wrap;html=1;aspect=fixed;align=left;" vertex="1" parent="1">
          <mxGeometry x="690" y="10" width="120" height="120" as="geometry" />
        </mxCell>
        <mxCell id="KIbq9x-NmEHwbfyPO5Z1-25" value="&lt;b&gt;Influencer:&lt;br&gt;&lt;/b&gt;&lt;span&gt;People nowadays regularly use many apps and services on their smartphones&lt;/span&gt;&lt;b&gt;&lt;br&gt;&lt;/b&gt;" style="whiteSpace=wrap;html=1;aspect=fixed;align=left;" vertex="1" parent="1">
          <mxGeometry x="650" y="420" width="120" height="120" as="geometry" />
        </mxCell>
        <mxCell id="KIbq9x-NmEHwbfyPO5Z1-29" value="" style="endArrow=none;html=1;exitX=0.25;exitY=0;exitDx=0;exitDy=0;entryX=1;entryY=0.75;entryDx=0;entryDy=0;" edge="1" parent="1" source="KIbq9x-NmEHwbfyPO5Z1-25" target="IBMI4tn_m0O9jDeK7wMh-1">
          <mxGeometry width="50" height="50" relative="1" as="geometry">
            <mxPoint x="670" y="410" as="sourcePoint" />
            <mxPoint x="680" y="100" as="targetPoint" />
            <Array as="points">
              <mxPoint x="680" y="100" />
            </Array>
          </mxGeometry>
        </mxCell>
        <mxCell id="KIbq9x-NmEHwbfyPO5Z1-30" value="sss" style="edgeLabel;html=1;align=center;verticalAlign=middle;resizable=0;points=[];" vertex="1" connectable="0" parent="KIbq9x-NmEHwbfyPO5Z1-29">
          <mxGeometry x="-0.3085" y="1" relative="1" as="geometry">
            <mxPoint y="51" as="offset" />
          </mxGeometry>
        </mxCell>
        <mxCell id="KIbq9x-NmEHwbfyPO5Z1-31" value="Threath" style="edgeLabel;html=1;align=center;verticalAlign=middle;resizable=0;points=[];" vertex="1" connectable="0" parent="KIbq9x-NmEHwbfyPO5Z1-29">
          <mxGeometry x="-0.6194" relative="1" as="geometry">
            <mxPoint as="offset" />
          </mxGeometry>
        </mxCell>
        <mxCell id="KIbq9x-NmEHwbfyPO5Z1-32" value="" style="endArrow=none;html=1;entryX=0.597;entryY=1.022;entryDx=0;entryDy=0;entryPerimeter=0;" edge="1" parent="1" target="IBMI4tn_m0O9jDeK7wMh-5">
          <mxGeometry width="50" height="50" relative="1" as="geometry">
            <mxPoint x="560" y="200" as="sourcePoint" />
            <mxPoint x="170" y="150" as="targetPoint" />
            <Array as="points">
              <mxPoint x="560" y="150" />
              <mxPoint x="172" y="150" />
            </Array>
          </mxGeometry>
        </mxCell>
        <mxCell id="KIbq9x-NmEHwbfyPO5Z1-36" value="support" style="edgeLabel;html=1;align=center;verticalAlign=middle;resizable=0;points=[];" vertex="1" connectable="0" parent="KIbq9x-NmEHwbfyPO5Z1-32">
          <mxGeometry x="-0.6328" y="-1" relative="1" as="geometry">
            <mxPoint as="offset" />
          </mxGeometry>
        </mxCell>
        <mxCell id="KIbq9x-NmEHwbfyPO5Z1-37" value="" style="endArrow=none;html=1;entryX=0.5;entryY=1;entryDx=0;entryDy=0;" edge="1" parent="1" target="IBMI4tn_m0O9jDeK7wMh-1">
          <mxGeometry width="50" height="50" relative="1" as="geometry">
            <mxPoint x="590" y="200" as="sourcePoint" />
            <mxPoint x="640" y="150" as="targetPoint" />
          </mxGeometry>
        </mxCell>
        <mxCell id="KIbq9x-NmEHwbfyPO5Z1-38" value="support" style="edgeLabel;html=1;align=center;verticalAlign=middle;resizable=0;points=[];" vertex="1" connectable="0" parent="KIbq9x-NmEHwbfyPO5Z1-37">
          <mxGeometry x="-0.2686" y="4" relative="1" as="geometry">
            <mxPoint x="5" as="offset" />
          </mxGeometry>
        </mxCell>
        <mxCell id="KIbq9x-NmEHwbfyPO5Z1-39" value="" style="endArrow=none;html=1;entryX=0.5;entryY=1;entryDx=0;entryDy=0;exitX=0.367;exitY=0.005;exitDx=0;exitDy=0;exitPerimeter=0;" edge="1" parent="1" source="KIbq9x-NmEHwbfyPO5Z1-8">
          <mxGeometry width="50" height="50" relative="1" as="geometry">
            <mxPoint x="740" y="200" as="sourcePoint" />
            <mxPoint x="740" y="130" as="targetPoint" />
          </mxGeometry>
        </mxCell>
        <mxCell id="KIbq9x-NmEHwbfyPO5Z1-40" value="support" style="edgeLabel;html=1;align=center;verticalAlign=middle;resizable=0;points=[];" vertex="1" connectable="0" parent="KIbq9x-NmEHwbfyPO5Z1-39">
          <mxGeometry x="-0.2686" y="4" relative="1" as="geometry">
            <mxPoint x="5" as="offset" />
          </mxGeometry>
        </mxCell>
        <mxCell id="KIbq9x-NmEHwbfyPO5Z1-41" value="" style="endArrow=none;html=1;entryX=0.5;entryY=1;entryDx=0;entryDy=0;" edge="1" parent="1">
          <mxGeometry width="50" height="50" relative="1" as="geometry">
            <mxPoint x="900" y="200" as="sourcePoint" />
            <mxPoint x="900" y="130" as="targetPoint" />
          </mxGeometry>
        </mxCell>
        <mxCell id="KIbq9x-NmEHwbfyPO5Z1-42" value="support" style="edgeLabel;html=1;align=center;verticalAlign=middle;resizable=0;points=[];" vertex="1" connectable="0" parent="KIbq9x-NmEHwbfyPO5Z1-41">
          <mxGeometry x="-0.2686" y="4" relative="1" as="geometry">
            <mxPoint x="5" y="-8" as="offset" />
          </mxGeometry>
        </mxCell>
        <mxCell id="KIbq9x-NmEHwbfyPO5Z1-43" value="" style="endArrow=none;html=1;entryX=0.5;entryY=1;entryDx=0;entryDy=0;exitX=0.5;exitY=0;exitDx=0;exitDy=0;" edge="1" parent="1" source="qYQen40BbtpS6DdnJ-LU-7">
          <mxGeometry width="50" height="50" relative="1" as="geometry">
            <mxPoint x="399.5" y="399" as="sourcePoint" />
            <mxPoint x="399.5" y="329" as="targetPoint" />
          </mxGeometry>
        </mxCell>
        <mxCell id="KIbq9x-NmEHwbfyPO5Z1-44" value="support" style="edgeLabel;html=1;align=center;verticalAlign=middle;resizable=0;points=[];" vertex="1" connectable="0" parent="KIbq9x-NmEHwbfyPO5Z1-43">
          <mxGeometry x="-0.2686" y="4" relative="1" as="geometry">
            <mxPoint x="5" y="-8" as="offset" />
          </mxGeometry>
        </mxCell>
        <mxCell id="KIbq9x-NmEHwbfyPO5Z1-45" value="partof" style="endArrow=none;html=1;entryX=0.5;entryY=1;entryDx=0;entryDy=0;" edge="1" parent="1">
          <mxGeometry width="50" height="50" relative="1" as="geometry">
            <mxPoint x="390" y="210" as="sourcePoint" />
            <mxPoint x="389.5" y="130" as="targetPoint" />
          </mxGeometry>
        </mxCell>
        <mxCell id="KIbq9x-NmEHwbfyPO5Z1-47" value="partof" style="endArrow=none;html=1;exitX=0.43;exitY=-0.02;exitDx=0;exitDy=0;exitPerimeter=0;entryX=0.25;entryY=1;entryDx=0;entryDy=0;" edge="1" parent="1" source="KIbq9x-NmEHwbfyPO5Z1-1" target="IBMI4tn_m0O9jDeK7wMh-5">
          <mxGeometry width="50" height="50" relative="1" as="geometry">
            <mxPoint x="130.5" y="200" as="sourcePoint" />
            <mxPoint x="130" y="140" as="targetPoint" />
          </mxGeometry>
        </mxCell>
        <mxCell id="KIbq9x-NmEHwbfyPO5Z1-48" value="" style="endArrow=none;html=1;entryX=0.333;entryY=1.01;entryDx=0;entryDy=0;entryPerimeter=0;exitX=0.36;exitY=0.002;exitDx=0;exitDy=0;exitPerimeter=0;" edge="1" parent="1" source="KIbq9x-NmEHwbfyPO5Z1-4" target="KIbq9x-NmEHwbfyPO5Z1-1">
          <mxGeometry width="50" height="50" relative="1" as="geometry">
            <mxPoint x="120" y="400" as="sourcePoint" />
            <mxPoint x="120" y="320" as="targetPoint" />
          </mxGeometry>
        </mxCell>
        <mxCell id="KIbq9x-NmEHwbfyPO5Z1-49" value="support" style="edgeLabel;html=1;align=center;verticalAlign=middle;resizable=0;points=[];" vertex="1" connectable="0" parent="KIbq9x-NmEHwbfyPO5Z1-48">
          <mxGeometry x="-0.2686" y="4" relative="1" as="geometry">
            <mxPoint x="5" y="-8" as="offset" />
          </mxGeometry>
        </mxCell>
      </root>
    </mxGraphModel>
  </diagram>
</mxfile>
